<?xml version="1.0" encoding="utf-8"?>
<!-- Generator: Adobe Illustrator 25.2.1, SVG Export Plug-In . SVG Version: 6.00 Build 0)  -->
<svg version="1.1" id="Layer_1" xmlns="http://www.w3.org/2000/svg" xmlns:xlink="http://www.w3.org/1999/xlink" x="0px" y="0px"
	 viewBox="0 0 25 25" style="enable-background:new 0 0 25 25;" xml:space="preserve">
<style type="text/css">
	.st0{fill:#111029;}
</style>
<path class="st0" d="M11.9,15.3l-0.4-0.1L0.1,10L0,9.5c0-0.3,0.2-0.6,0.5-0.8l4.2-1.8c0.4-0.2,0.8,0,1,0.4c0.2,0.4,0,0.8-0.4,1
	L2.4,9.5l9.4,4.2l9.6-4.2l-9.5-4.1L9.1,6.6c-0.4,0.2-0.8,0-1-0.4c-0.2-0.4,0-0.8,0.4-1l3.4-1.5L12.2,4l11.5,5l0.1,0.6
	c0,0.3-0.2,0.6-0.5,0.8L11.9,15.3z"/>
<path class="st0" d="M11.9,21.2c-0.1,0-0.2,0-0.3,0c-2.2,0-4.4-0.4-6.4-1.2c-0.4-0.1-0.6-0.5-0.6-0.9v-7.5c0-0.4,0.3-0.7,0.7-0.7
	c0.4,0,0.7,0.3,0.7,0.7v7.2c1.8,0.6,3.7,1,5.7,1c2.1,0,4.1-0.3,6.1-0.9V14c0-0.4,0.3-0.7,0.7-0.7c0.4,0,0.7,0.3,0.7,0.7v5.1
	c0,0.4-0.3,0.8-0.7,0.9C16.4,20.8,14.2,21.2,11.9,21.2z M5.7,18.6C5.7,18.6,5.7,18.6,5.7,18.6C5.7,18.6,5.7,18.6,5.7,18.6z"/>
<path class="st0" d="M23.1,14c-0.4,0-0.7-0.3-0.7-0.7V9.5c0-0.4,0.3-0.7,0.7-0.7c0.4,0,0.7,0.3,0.7,0.7v3.8
	C23.8,13.7,23.5,14,23.1,14z"/>
<path class="st0" d="M23.1,16.4c-1,0-1.9-0.8-1.9-1.9c0-1,0.8-1.9,1.9-1.9c1,0,1.9,0.8,1.9,1.9C25,15.5,24.2,16.4,23.1,16.4z
	 M23.1,14c-0.2,0-0.4,0.2-0.4,0.4c0,0.2,0.2,0.4,0.4,0.4c0.2,0,0.4-0.2,0.4-0.4C23.5,14.2,23.4,14,23.1,14z"/>
</svg>
