<svg id="Layer_2" data-name="Layer 2" xmlns="http://www.w3.org/2000/svg" xmlns:xlink="http://www.w3.org/1999/xlink" viewBox="0 0 126.1 128.29"><defs><style>.cls-1{fill:#cacac9;}.cls-2{fill:#656363;}.cls-3{fill:#191919;}.cls-4{fill:#9f9fa0;}.cls-5{fill:url(#linear-gradient);}</style><linearGradient id="linear-gradient" x1="104.06" y1="62.98" x2="116.2" y2="13.68" gradientUnits="userSpaceOnUse"><stop offset="0" stop-color="#fff" stop-opacity="0.1"/><stop offset="1" stop-color="#fff"/></linearGradient></defs><path class="cls-1" d="M22.56,73.66,17.64,11.41A3.18,3.18,0,0,1,20.81,8H130.66a3.18,3.18,0,0,1,3.16,3.42q-2.34,31.17-4.69,62.33" transform="translate(-12.72 -7.98)"/><path class="cls-2" d="M13.38,130a16.65,16.65,0,0,0-.62,5,1.62,1.62,0,0,0,.38.77,1.43,1.43,0,0,0,.62.34H55.67a.85.85,0,0,0,.84-.85.84.84,0,0,1,.86-.84c25,0,36.7,0,36.82,0h0c.08,0,.1.38.07.95a.85.85,0,0,0,.84.9H138a.85.85,0,0,0,.84-1c-.16-1.34-.32-2.69-.47-4Z" transform="translate(-12.72 -7.98)"/><path class="cls-1" d="M22.32,74.11q-4.77,29.81-9.53,59.6a.84.84,0,0,0,.83,1H55.53a.85.85,0,0,0,.84-.84h0a.86.86,0,0,1,.86-.85c25,0,36.7,0,36.82,0h0c.08,0,.1.37.07.94a.85.85,0,0,0,.84.9h42.86a.85.85,0,0,0,.84-1l-9.54-60.13a.85.85,0,0,0-.84-.71L23.16,73.4A.85.85,0,0,0,22.32,74.11Z" transform="translate(-12.72 -7.98)"/><rect class="cls-3" x="12.49" y="69.1" width="10.48" height="3.16" rx="0.4"/><rect x="12.49" y="67.84" width="10.48" height="3.16" rx="0.4"/><rect class="cls-3" x="24.64" y="69.1" width="6.18" height="3.16" rx="0.31"/><rect x="24.64" y="67.84" width="6.18" height="3.16" rx="0.31"/><rect class="cls-3" x="33.08" y="69.1" width="6.18" height="3.16" rx="0.31"/><rect x="33.08" y="67.84" width="6.18" height="3.16" rx="0.31"/><rect class="cls-3" x="57.44" y="69.13" width="6.18" height="3.16" rx="0.31"/><rect x="57.44" y="67.87" width="6.18" height="3.16" rx="0.31"/><rect class="cls-3" x="49.5" y="69.13" width="6.18" height="3.16" rx="0.31"/><rect x="49.5" y="67.87" width="6.18" height="3.16" rx="0.31"/><rect class="cls-3" x="41.29" y="69.13" width="6.18" height="3.16" rx="0.31"/><rect x="41.29" y="67.87" width="6.18" height="3.16" rx="0.31"/><rect class="cls-3" x="65.45" y="69.15" width="6.18" height="3.16" rx="0.31"/><rect x="65.45" y="67.89" width="6.18" height="3.16" rx="0.31"/><rect class="cls-3" x="74.1" y="69.15" width="6.18" height="3.16" rx="0.31"/><rect x="74.1" y="67.89" width="6.18" height="3.16" rx="0.31"/><rect class="cls-3" x="82.58" y="69.19" width="6.18" height="3.16" rx="0.31"/><rect x="82.58" y="67.94" width="6.18" height="3.16" rx="0.31"/><rect class="cls-3" x="90.52" y="69.19" width="6.18" height="3.16" rx="0.31"/><rect x="90.52" y="67.94" width="6.18" height="3.16" rx="0.31"/><rect class="cls-3" x="98.84" y="69.19" width="6.18" height="3.16" rx="0.31"/><rect x="98.84" y="67.94" width="6.18" height="3.16" rx="0.31"/><rect class="cls-3" x="106.94" y="69.19" width="6.18" height="3.16" rx="0.31"/><rect x="106.94" y="67.94" width="6.18" height="3.16" rx="0.31"/><rect class="cls-3" x="11.15" y="76.75" width="13.01" height="3.8" rx="0.49"/><rect x="11.15" y="75.24" width="13.01" height="3.8" rx="0.49"/><rect class="cls-3" x="25.85" y="76.75" width="6.82" height="3.8" rx="0.36"/><rect x="25.85" y="75.24" width="6.82" height="3.8" rx="0.36"/><rect class="cls-3" x="34.37" y="76.66" width="6.82" height="3.8" rx="0.36"/><rect x="34.37" y="75.15" width="6.82" height="3.8" rx="0.36"/><rect class="cls-3" x="42.8" y="76.72" width="6.82" height="3.8" rx="0.36"/><rect x="42.8" y="75.21" width="6.82" height="3.8" rx="0.36"/><rect class="cls-3" x="51.14" y="76.72" width="6.82" height="3.8" rx="0.36"/><rect x="51.14" y="75.21" width="6.82" height="3.8" rx="0.36"/><rect class="cls-3" x="59.59" y="76.72" width="6.82" height="3.8" rx="0.36"/><rect x="59.59" y="75.21" width="6.82" height="3.8" rx="0.36"/><rect class="cls-3" x="67.91" y="76.72" width="6.82" height="3.8" rx="0.36"/><rect x="67.91" y="75.21" width="6.82" height="3.8" rx="0.36"/><rect class="cls-3" x="76.23" y="76.72" width="6.82" height="3.8" rx="0.36"/><rect x="76.23" y="75.21" width="6.82" height="3.8" rx="0.36"/><rect class="cls-3" x="84.56" y="76.72" width="6.82" height="3.8" rx="0.36"/><rect x="84.56" y="75.21" width="6.82" height="3.8" rx="0.36"/><rect class="cls-3" x="93.29" y="76.72" width="6.82" height="3.8" rx="0.36"/><rect x="93.29" y="75.21" width="6.82" height="3.8" rx="0.36"/><rect class="cls-3" x="101.36" y="76.66" width="13.01" height="3.8" rx="0.49"/><rect x="101.36" y="75.15" width="13.01" height="3.8" rx="0.49"/><rect class="cls-3" x="98.56" y="83.9" width="16.97" height="4.01" rx="0.58"/><rect x="98.56" y="82.3" width="16.97" height="4.01" rx="0.58"/><rect class="cls-3" x="89.09" y="83.9" width="7.61" height="4.01" rx="0.39"/><rect x="89.09" y="82.3" width="7.61" height="4.01" rx="0.39"/><rect class="cls-3" x="80.28" y="83.9" width="7.61" height="4.01" rx="0.39"/><rect x="80.28" y="82.3" width="7.61" height="4.01" rx="0.39"/><rect class="cls-3" x="71.8" y="83.9" width="7.61" height="4.01" rx="0.39"/><rect x="71.8" y="82.3" width="7.61" height="4.01" rx="0.39"/><rect class="cls-3" x="63" y="83.9" width="7.61" height="4.01" rx="0.39"/><rect x="63" y="82.3" width="7.61" height="4.01" rx="0.39"/><rect class="cls-3" x="54.54" y="83.9" width="7.61" height="4.01" rx="0.39"/><rect x="54.54" y="82.3" width="7.61" height="4.01" rx="0.39"/><rect class="cls-3" x="46.21" y="83.9" width="7.61" height="4.01" rx="0.39"/><rect x="46.21" y="82.3" width="7.61" height="4.01" rx="0.39"/><rect class="cls-3" x="37.49" y="83.9" width="7.61" height="4.01" rx="0.39"/><rect x="37.49" y="82.3" width="7.61" height="4.01" rx="0.39"/><rect class="cls-3" x="29.03" y="83.9" width="7.61" height="4.01" rx="0.39"/><rect x="29.03" y="82.3" width="7.61" height="4.01" rx="0.39"/><rect class="cls-3" x="10.01" y="84.03" width="17.72" height="4.01" rx="0.59"/><rect x="10.01" y="82.43" width="17.72" height="4.01" rx="0.59"/><rect class="cls-3" x="8.79" y="91.45" width="7.6" height="4.84" rx="0.43"/><rect x="8.79" y="89.52" width="7.6" height="4.84" rx="0.43"/><rect class="cls-3" x="17.42" y="91.45" width="7.6" height="4.84" rx="0.43"/><rect x="17.42" y="89.52" width="7.6" height="4.84" rx="0.43"/><rect class="cls-3" x="26.19" y="91.45" width="7.6" height="4.84" rx="0.43"/><rect x="26.19" y="89.52" width="7.6" height="4.84" rx="0.43"/><rect class="cls-3" x="35.46" y="91.45" width="55.06" height="4.84" rx="1.15"/><rect x="35.46" y="89.52" width="55.06" height="4.84" rx="1.15"/><rect class="cls-3" x="92.09" y="91.45" width="7.6" height="4.84" rx="0.43"/><rect x="92.09" y="89.52" width="7.6" height="4.84" rx="0.43"/><rect class="cls-3" x="101" y="91.45" width="7.6" height="4.84" rx="0.43"/><rect x="101" y="89.52" width="7.6" height="4.84" rx="0.43"/><rect class="cls-3" x="109.67" y="91.45" width="7.6" height="4.84" rx="0.43"/><rect x="109.67" y="89.52" width="7.6" height="4.84" rx="0.43"/><path class="cls-4" d="M104.78,105.66l-58.24-.29a.82.82,0,0,0-.82.74q-1.08,12-2.15,24a.81.81,0,0,0,.81.89h62.07a.81.81,0,0,0,.81-.88l-1.67-23.73A.82.82,0,0,0,104.78,105.66Z" transform="translate(-12.72 -7.98)"/><path d="M130.07,10.69H21.67a1.34,1.34,0,0,0-1.33,1.42L24.42,72a1.32,1.32,0,0,0,1.32,1.24H127A1.33,1.33,0,0,0,128.31,72l3.09-59.92A1.34,1.34,0,0,0,130.07,10.69Z" transform="translate(-12.72 -7.98)"/><path class="cls-5" d="M128.31,72l3.09-59.92a1.34,1.34,0,0,0-1.33-1.4H90.44Q103.49,42,116.56,73.27H127A1.33,1.33,0,0,0,128.31,72Z" transform="translate(-12.72 -7.98)"/></svg>