<?xml version="1.0" encoding="utf-8"?>
<!-- Generator: Adobe Illustrator 25.2.1, SVG Export Plug-In . SVG Version: 6.00 Build 0)  -->
<svg version="1.1" id="Layer_1" xmlns="http://www.w3.org/2000/svg" xmlns:xlink="http://www.w3.org/1999/xlink" x="0px" y="0px"
	 viewBox="0 0 100 60" style="enable-background:new 0 0 100 60;" xml:space="preserve">
<style type="text/css">
	.st0{fill:#111029;}
	.st1{fill:#FBDFD9;}
	.st2{fill:#6C5FEA;}
</style>
<g>
	<path class="st0" d="M33.7,27c0.6-1.1,1.4-2,2.4-2.6c1-0.6,2.2-0.9,3.4-0.9c1.2,0,2.3,0.3,3.3,0.8c0.9,0.5,1.6,1.2,2.1,2v-2.6h2.4
		V38h-2.4v-2.7c-0.5,0.8-1.2,1.5-2.1,2.1c-0.9,0.5-2,0.8-3.2,0.8c-1.3,0-2.4-0.3-3.4-0.9c-1-0.6-1.8-1.5-2.4-2.6
		c-0.6-1.1-0.9-2.4-0.9-3.9C32.8,29.4,33.1,28.1,33.7,27z M44.2,28.1c-0.4-0.8-1-1.4-1.8-1.8c-0.7-0.4-1.5-0.6-2.4-0.6
		s-1.7,0.2-2.4,0.6c-0.7,0.4-1.3,1-1.7,1.8c-0.4,0.8-0.7,1.7-0.7,2.8c0,1.1,0.2,2,0.7,2.8c0.4,0.8,1,1.4,1.7,1.8
		c0.7,0.4,1.5,0.6,2.4,0.6s1.7-0.2,2.4-0.6c0.7-0.4,1.3-1,1.8-1.8s0.7-1.7,0.7-2.8C44.9,29.8,44.7,28.9,44.2,28.1z"/>
	<path class="st0" d="M62.5,25.1c1.1,1,1.6,2.6,1.6,4.5V38h-2.3V30c0-1.4-0.4-2.5-1.1-3.3c-0.7-0.8-1.7-1.1-2.9-1.1
		c-1.2,0-2.2,0.4-3,1.2s-1.1,1.9-1.1,3.4V38h-2.4V23.8h2.4v2c0.5-0.7,1.1-1.3,1.9-1.7c0.8-0.4,1.7-0.6,2.7-0.6
		C60,23.5,61.4,24.1,62.5,25.1z"/>
	<path class="st0" d="M72.4,24.4c0.9-0.5,2-0.8,3.2-0.8c1.3,0,2.4,0.3,3.5,0.9c1,0.6,1.8,1.5,2.4,2.6s0.9,2.4,0.9,3.8
		c0,1.4-0.3,2.7-0.9,3.9c-0.6,1.1-1.4,2-2.4,2.6c-1,0.6-2.2,0.9-3.4,0.9c-1.2,0-2.3-0.3-3.2-0.8c-0.9-0.5-1.6-1.2-2.1-2.1V38h-2.4
		V18.8h2.4v7.7C70.8,25.6,71.5,24.9,72.4,24.4z M79.3,28.1c-0.4-0.8-1-1.4-1.8-1.8c-0.7-0.4-1.5-0.6-2.4-0.6c-0.9,0-1.7,0.2-2.4,0.6
		s-1.3,1-1.8,1.8c-0.4,0.8-0.7,1.7-0.7,2.8c0,1.1,0.2,2,0.7,2.8s1,1.4,1.8,1.8c0.7,0.4,1.5,0.6,2.4,0.6c0.9,0,1.7-0.2,2.4-0.6
		c0.7-0.4,1.3-1,1.8-1.8S80,32,80,30.9C80,29.8,79.8,28.9,79.3,28.1z"/>
	<path class="st0" d="M88.1,37.4c-1.1-0.6-1.9-1.5-2.5-2.6c-0.6-1.1-0.9-2.4-0.9-3.9c0-1.5,0.3-2.7,0.9-3.9c0.6-1.1,1.5-2,2.6-2.6
		c1.1-0.6,2.3-0.9,3.7-0.9c1.4,0,2.6,0.3,3.7,0.9c1.1,0.6,2,1.5,2.6,2.6c0.6,1.1,1,2.4,1,3.9s-0.3,2.8-1,3.9s-1.5,2-2.6,2.6
		c-1.1,0.6-2.3,0.9-3.7,0.9C90.4,38.3,89.2,38,88.1,37.4z M94.1,35.6c0.7-0.4,1.3-1,1.8-1.8c0.5-0.8,0.7-1.8,0.7-2.9
		c0-1.1-0.2-2.1-0.7-2.9c-0.5-0.8-1-1.4-1.8-1.8c-0.7-0.4-1.5-0.6-2.4-0.6c-0.9,0-1.7,0.2-2.4,0.6c-0.7,0.4-1.3,1-1.7,1.8
		s-0.7,1.8-0.7,2.9c0,1.2,0.2,2.1,0.6,2.9c0.4,0.8,1,1.4,1.7,1.8c0.7,0.4,1.5,0.6,2.3,0.6C92.6,36.2,93.4,36,94.1,35.6z"/>
</g>
<path class="st1" d="M7.2,38L7.2,38c-3.9,0-7.1-3.2-7.1-7.1v0c0-3.9,3.2-7.1,7.1-7.1h0c3.9,0,7.1,3.2,7.1,7.1v0
	C14.3,34.9,11.1,38,7.2,38z"/>
<path class="st2" d="M24.5,38h-9.1V19.1h9.3c2.6,0,4.7,2.1,4.7,4.7v9.4C29.3,35.9,27.2,38,24.5,38z"/>
</svg>
