<?xml version="1.0" encoding="utf-8"?>
<!-- Generator: Adobe Illustrator 25.2.1, SVG Export Plug-In . SVG Version: 6.00 Build 0)  -->
<svg version="1.1" xmlns="http://www.w3.org/2000/svg" xmlns:xlink="http://www.w3.org/1999/xlink" x="0px" y="0px"
	 viewBox="0 0 150 150" style="enable-background:new 0 0 150 150;" xml:space="preserve">
<style type="text/css">
	.st0{display:none;}
	.st1{display:inline;}
	.st2{fill:#0C0E0D;stroke:#7E807F;stroke-width:2;stroke-miterlimit:10;}
	.st3{fill:#4F5150;}
	.st4{fill:#2CB34F;}
	.st5{fill:#FFFFFF;}
	.st6{fill:#D4C0FF;}
	.st7{fill:#90ABBD;}
	.st8{fill:#00A3A8;}
	.st9{fill:#56788B;}
	.st10{fill:#FDD9B4;}
	.st11{fill:#4DD4F7;}
	.st12{fill:#F9D11F;}
	.st13{fill:#ED2061;}
	.st14{fill:#415E6F;}
	.st15{fill:#B70F73;}
	.st16{fill:#FF7E50;}
	.st17{fill:#14BB87;}
	.st18{fill:#222222;}
</style>
<g id="Layer_1" class="st0">
	<g id="kTPmdw_1_" class="st1">
		
			<image style="overflow:visible;" width="1000" height="1000" id="kTPmdw" xlink:href="76CC55D345804AB9.jpg"  transform="matrix(0.1919 0 0 0.1919 -20.9555 -20.9555)">
		</image>
	</g>
</g>
<g id="Layer_2">
	<path class="st2" d="M105.9,3.3H44.1c-4.4,0-7.9,3.5-7.9,7.9v128.6c0,4.4,3.5,7.9,7.9,7.9h61.8c4.4,0,7.9-3.5,7.9-7.9V11.2
		C113.8,6.9,110.3,3.3,105.9,3.3z"/>
	<path class="st3" d="M103.4,126H46.5c-3.3,0-6.1,2.7-6.1,6.1v5c0,3.3,2.7,6.1,6.1,6.1h56.9c3.3,0,6.1-2.7,6.1-6.1v-5
		C109.4,128.7,106.7,126,103.4,126z"/>
	<path class="st4" d="M53.1,31.2h-5.3c-1.5,0-2.7-1.2-2.7-2.7v-5.3c0-1.5,1.2-2.7,2.7-2.7h5.3c1.5,0,2.7,1.2,2.7,2.7v5.3
		C55.8,30,54.6,31.2,53.1,31.2z"/>
	<path class="st5" d="M69.5,31.2h-5.3c-1.5,0-2.7-1.2-2.7-2.7v-5.3c0-1.5,1.2-2.7,2.7-2.7h5.3c1.5,0,2.7,1.2,2.7,2.7v5.3
		C72.2,30,71,31.2,69.5,31.2z"/>
	<path class="st6" d="M85.7,31.2h-5.3c-1.5,0-2.7-1.2-2.7-2.7v-5.3c0-1.5,1.2-2.7,2.7-2.7h5.3c1.5,0,2.7,1.2,2.7,2.7v5.3
		C88.4,30,87.2,31.2,85.7,31.2z"/>
	<path class="st7" d="M101.9,31.2h-5.3c-1.5,0-2.7-1.2-2.7-2.7v-5.3c0-1.5,1.2-2.7,2.7-2.7h5.3c1.5,0,2.7,1.2,2.7,2.7v5.3
		C104.7,30,103.4,31.2,101.9,31.2z"/>
	<path class="st8" d="M53.1,48.1h-5.3c-1.5,0-2.7-1.2-2.7-2.7V40c0-1.5,1.2-2.7,2.7-2.7h5.3c1.5,0,2.7,1.2,2.7,2.7v5.3
		C55.9,46.8,54.6,48.1,53.1,48.1z"/>
	<path class="st9" d="M69.5,48.1h-5.3c-1.5,0-2.7-1.2-2.7-2.7V40c0-1.5,1.2-2.7,2.7-2.7h5.3c1.5,0,2.7,1.2,2.7,2.7v5.3
		C72.2,46.8,71,48.1,69.5,48.1z"/>
	<path class="st10" d="M85.7,48.1h-5.3c-1.5,0-2.7-1.2-2.7-2.7V40c0-1.5,1.2-2.7,2.7-2.7h5.3c1.5,0,2.7,1.2,2.7,2.7v5.3
		C88.4,46.8,87.2,48.1,85.7,48.1z"/>
	<path class="st11" d="M102,48.1h-5.3c-1.5,0-2.7-1.2-2.7-2.7V40c0-1.5,1.2-2.7,2.7-2.7h5.3c1.5,0,2.7,1.2,2.7,2.7v5.3
		C104.7,46.8,103.5,48.1,102,48.1z"/>
	<path class="st12" d="M53.1,65.4h-5.3c-1.5,0-2.7-1.2-2.7-2.7v-5.3c0-1.5,1.2-2.7,2.7-2.7h5.3c1.5,0,2.7,1.2,2.7,2.7v5.3
		C55.9,64.1,54.6,65.4,53.1,65.4z"/>
	<path class="st5" d="M69.5,65.4h-5.3c-1.5,0-2.7-1.2-2.7-2.7v-5.3c0-1.5,1.2-2.7,2.7-2.7h5.3c1.5,0,2.7,1.2,2.7,2.7v5.3
		C72.2,64.1,71,65.4,69.5,65.4z"/>
	<path class="st13" d="M85.7,65.4h-5.3c-1.5,0-2.7-1.2-2.7-2.7v-5.3c0-1.5,1.2-2.7,2.7-2.7h5.3c1.5,0,2.7,1.2,2.7,2.7v5.3
		C88.4,64.1,87.2,65.4,85.7,65.4z"/>
	<path class="st14" d="M102,65.4h-5.3c-1.5,0-2.7-1.2-2.7-2.7v-5.3c0-1.5,1.2-2.7,2.7-2.7h5.3c1.5,0,2.7,1.2,2.7,2.7v5.3
		C104.7,64.1,103.5,65.4,102,65.4z"/>
	<path class="st8" d="M53.1,82.7h-5.3c-1.5,0-2.7-1.2-2.7-2.7v-5.3c0-1.5,1.2-2.7,2.7-2.7h5.3c1.5,0,2.7,1.2,2.7,2.7v5.3
		C55.9,81.4,54.6,82.7,53.1,82.7z"/>
	<path class="st15" d="M69.5,82.7h-5.3c-1.5,0-2.7-1.2-2.7-2.7v-5.3c0-1.5,1.2-2.7,2.7-2.7h5.3c1.5,0,2.7,1.2,2.7,2.7v5.3
		C72.2,81.4,71,82.7,69.5,82.7z"/>
	<path class="st11" d="M85.7,82.7h-5.3c-1.5,0-2.7-1.2-2.7-2.7v-5.3c0-1.5,1.2-2.7,2.7-2.7h5.3c1.5,0,2.7,1.2,2.7,2.7v5.3
		C88.4,81.4,87.2,82.7,85.7,82.7z"/>
	<path class="st16" d="M102,82.7h-5.3c-1.5,0-2.7-1.2-2.7-2.7v-5.3c0-1.5,1.2-2.7,2.7-2.7h5.3c1.5,0,2.7,1.2,2.7,2.7v5.3
		C104.7,81.4,103.5,82.7,102,82.7z"/>
	<path class="st5" d="M53.1,99.6h-5.3c-1.5,0-2.7-1.2-2.7-2.7v-5.3c0-1.5,1.2-2.7,2.7-2.7h5.3c1.5,0,2.7,1.2,2.7,2.7v5.3
		C55.9,98.3,54.6,99.6,53.1,99.6z"/>
	<path class="st12" d="M69.5,99.6h-5.3c-1.5,0-2.7-1.2-2.7-2.7v-5.3c0-1.5,1.2-2.7,2.7-2.7h5.3c1.5,0,2.7,1.2,2.7,2.7v5.3
		C72.2,98.3,71,99.6,69.5,99.6z"/>
	<path class="st14" d="M85.7,99.6h-5.3c-1.5,0-2.7-1.2-2.7-2.7v-5.3c0-1.5,1.2-2.7,2.7-2.7h5.3c1.5,0,2.7,1.2,2.7,2.7v5.3
		C88.4,98.3,87.2,99.6,85.7,99.6z"/>
	<path class="st7" d="M102,99.6h-5.3c-1.5,0-2.7-1.2-2.7-2.7v-5.3c0-1.5,1.2-2.7,2.7-2.7h5.3c1.5,0,2.7,1.2,2.7,2.7v5.3
		C104.7,98.3,103.5,99.6,102,99.6z"/>
	<path class="st11" d="M53.2,116.4h-5.3c-1.5,0-2.7-1.2-2.7-2.7v-5.3c0-1.5,1.2-2.7,2.7-2.7h5.3c1.5,0,2.7,1.2,2.7,2.7v5.3
		C55.9,115.2,54.7,116.4,53.2,116.4z"/>
	<path class="st13" d="M69.6,116.4h-5.3c-1.5,0-2.7-1.2-2.7-2.7v-5.3c0-1.5,1.2-2.7,2.7-2.7h5.3c1.5,0,2.7,1.2,2.7,2.7v5.3
		C72.3,115.2,71.1,116.4,69.6,116.4z"/>
	<path class="st5" d="M85.8,116.4h-5.3c-1.5,0-2.7-1.2-2.7-2.7v-5.3c0-1.5,1.2-2.7,2.7-2.7h5.3c1.5,0,2.7,1.2,2.7,2.7v5.3
		C88.5,115.2,87.3,116.4,85.8,116.4z"/>
	<path class="st17" d="M53.1,140h-5.3c-1.5,0-2.7-1.2-2.7-2.7v-5.3c0-1.5,1.2-2.7,2.7-2.7h5.3c1.5,0,2.7,1.2,2.7,2.7v5.3
		C55.9,138.8,54.6,140,53.1,140z"/>
	<path class="st11" d="M69.5,140h-5.3c-1.5,0-2.7-1.2-2.7-2.7v-5.3c0-1.5,1.2-2.7,2.7-2.7h5.3c1.5,0,2.7,1.2,2.7,2.7v5.3
		C72.2,138.8,71,140,69.5,140z"/>
	<path class="st17" d="M85.7,140h-5.3c-1.5,0-2.7-1.2-2.7-2.7v-5.3c0-1.5,1.2-2.7,2.7-2.7h5.3c1.5,0,2.7,1.2,2.7,2.7v5.3
		C88.4,138.8,87.2,140,85.7,140z"/>
	<path class="st5" d="M102,140h-5.3c-1.5,0-2.7-1.2-2.7-2.7v-5.3c0-1.5,1.2-2.7,2.7-2.7h5.3c1.5,0,2.7,1.2,2.7,2.7v5.3
		C104.7,138.8,103.5,140,102,140z"/>
	<path class="st18" d="M79.9,11.1H69.9c-0.9,0-1.7,0.8-1.7,1.7v0c0,0.9,0.8,1.7,1.7,1.7h10.1c0.9,0,1.7-0.8,1.7-1.7v0
		C81.6,11.9,80.8,11.1,79.9,11.1z"/>
	<circle class="st18" cx="87" cy="12.8" r="1.7"/>
</g>
</svg>
